<svg width="112" height="32" viewBox="0 0 112 32" fill="none" xmlns="http://www.w3.org/2000/svg">
<path d="M39.9969 25.0861L38.5975 22.6291C38.6301 22.8732 38.6463 23.0522 38.6463 23.1986V25.0861H38.0605V21.8968H38.8253L40.241 24.3702C40.2084 24.1424 40.1922 23.9308 40.1922 23.7518V21.8968H40.778V25.0861H39.9969ZM48.1492 25.0861V21.8968H50.6551V22.4175H48.8163V23.2149H50.5249V23.7356H48.8163V24.5817H50.7527V25.1024H48.1492V25.0861ZM59.4256 22.4013V25.0861H58.7585V22.4013H57.7334V21.8806H60.4671V22.4013H59.4256ZM70.816 25.0861H70.0187L69.5794 23.2311C69.5305 23.0196 69.4817 22.7918 69.4492 22.5477C69.4166 22.743 69.3841 22.8894 69.3678 23.0033C69.3515 23.101 69.1888 23.8007 68.8797 25.0861H68.0823L67.2525 21.8968H67.9359L68.3915 23.9634L68.4891 24.4678C68.538 24.2563 68.5705 24.061 68.6193 23.8658C68.6681 23.6705 68.8146 23.0196 69.0749 21.9131H69.8234L70.2302 23.6054C70.2628 23.7356 70.3116 24.0122 70.393 24.4678L70.4418 24.2075L70.5557 23.6868L70.9462 21.9131H71.6296L70.816 25.0861ZM81.7996 23.4752C81.7996 23.8007 81.7345 24.0936 81.6043 24.3539C81.4742 24.6143 81.2789 24.7932 81.0348 24.9397C80.7907 25.0699 80.4979 25.135 80.1724 25.135C79.668 25.135 79.2775 24.9885 78.9846 24.6956C78.7079 24.4027 78.5615 23.9959 78.5615 23.4752C78.5615 22.9708 78.7079 22.564 78.9846 22.2711C79.2612 21.9782 79.668 21.848 80.1724 21.848C80.6768 21.848 81.0674 21.9945 81.3603 22.2874C81.6694 22.564 81.7996 22.9708 81.7996 23.4752ZM81.1162 23.4752C81.1162 23.1335 81.0348 22.8569 80.8721 22.6616C80.7094 22.4664 80.4816 22.3687 80.1887 22.3687C79.8958 22.3687 79.6517 22.4664 79.489 22.6616C79.3263 22.8569 79.2449 23.1335 79.2449 23.4752C79.2449 23.8332 79.3263 24.1098 79.489 24.3051C79.6517 24.5004 79.8795 24.6143 80.1724 24.6143C80.4653 24.6143 80.7094 24.5166 80.8558 24.3214C81.0348 24.1098 81.1162 23.8332 81.1162 23.4752ZM91.2536 25.0861L90.5051 23.8658H89.7241V25.0861H89.0569V21.8968H90.6516C91.0258 21.8968 91.3187 21.9782 91.5303 22.1409C91.7418 22.3036 91.8394 22.5315 91.8394 22.8406C91.8394 23.0684 91.7743 23.2637 91.6442 23.4264C91.514 23.5891 91.3513 23.6868 91.1235 23.7518L91.9859 25.0861H91.2536ZM91.1723 22.8732C91.1723 22.564 90.977 22.4175 90.5865 22.4175H89.7241V23.3613H90.6027C90.798 23.3613 90.9282 23.3125 91.0258 23.2311C91.1235 23.1498 91.1723 23.0196 91.1723 22.8732ZM101.375 25.0861L100.236 23.6217L99.8452 23.9308V25.1024H99.1781V21.9131H99.8452V23.3613L101.277 21.9131H102.058L100.691 23.2637L102.172 25.1024H101.375V25.0861Z" fill="#7584D3"/>
<path fill-rule="evenodd" clip-rule="evenodd" d="M40.4199 7.21934C40.2572 7.21934 40.0945 7.15425 39.9806 7.04034C39.8504 6.91017 39.8016 6.76373 39.8016 6.60101C39.8016 6.43829 39.8667 6.27557 39.9806 6.16166C40.1107 6.03149 40.2572 5.98267 40.4199 5.98267H44.7808C45.4642 5.98267 46.0663 6.22675 46.5544 6.7149C47.0426 7.20306 47.2867 7.78886 47.2867 8.48855C47.2867 9.18825 47.0426 9.77404 46.5544 10.2622C46.0663 10.7504 45.4805 10.9944 44.7808 10.9944H42.4865L46.9124 13.5329C46.9775 13.5654 47.0426 13.6142 47.1077 13.663C47.2216 13.7932 47.2867 13.9397 47.2867 14.1024C47.2867 14.2651 47.2216 14.4278 47.1077 14.5417C46.9938 14.6719 46.8473 14.7207 46.6683 14.7207C46.5544 14.7207 46.4405 14.6882 46.3429 14.6394L41.0382 11.5802V14.1024C41.0382 14.2651 40.9732 14.4278 40.8593 14.5417C40.7291 14.6719 40.5826 14.7207 40.4199 14.7207C40.2572 14.7207 40.0945 14.6556 39.9806 14.5417C39.8504 14.4116 39.8016 14.2651 39.8016 14.1024V10.3598C39.8016 10.1971 39.8667 10.0507 39.9806 9.92049C40.1107 9.79031 40.2572 9.7415 40.4199 9.7415H44.7808C45.1225 9.7415 45.4154 9.62759 45.6595 9.38351C45.9036 9.13943 46.0175 8.84653 46.0175 8.50482C46.0175 8.16311 45.9036 7.87022 45.6595 7.62614C45.4154 7.38206 45.1225 7.26816 44.7808 7.26816H40.4199V7.21934Z" fill="#00BDF7"/>
<path fill-rule="evenodd" clip-rule="evenodd" d="M48.5396 6.60101C48.5396 6.43829 48.6047 6.27557 48.7186 6.16166C48.8488 6.03149 48.9952 5.98267 49.1579 5.98267C49.3207 5.98267 49.4671 6.04776 49.5973 6.16166C49.7275 6.29184 49.7763 6.43829 49.7763 6.60101V10.9619C49.7763 11.6453 50.0204 12.2474 50.5085 12.7355C50.9967 13.2237 51.5825 13.4678 52.2822 13.4678C52.9656 13.4678 53.5677 13.2237 54.0558 12.7355C54.544 12.2474 54.7881 11.6616 54.7881 10.9619V6.60101C54.7881 6.43829 54.8531 6.27557 54.967 6.16166C55.0972 6.03149 55.2437 5.98267 55.4064 5.98267C55.5691 5.98267 55.7156 6.04776 55.8457 6.16166C55.9759 6.29184 56.0247 6.43829 56.0247 6.60101V10.9619C56.0247 12.0033 55.6667 12.882 54.9345 13.6142C54.2023 14.3465 53.3236 14.7044 52.2822 14.7044C51.2408 14.7044 50.3621 14.3465 49.6298 13.6142C48.8976 12.882 48.5396 12.0033 48.5396 10.9619V6.60101Z" fill="#00BDF7"/>
<path fill-rule="evenodd" clip-rule="evenodd" d="M64.1282 5.96643C64.291 5.96643 64.4374 6.03151 64.5676 6.14542C64.6978 6.27559 64.7466 6.42204 64.7466 6.58476C64.7466 6.74748 64.6815 6.89393 64.5676 7.02411C64.4374 7.15428 64.291 7.2031 64.1282 7.2031H59.7674C59.4256 7.2031 59.1328 7.317 58.8887 7.56108C58.6446 7.80516 58.5307 8.09806 58.5307 8.43977C58.5307 8.78148 58.6446 9.07437 58.8887 9.31845C59.1328 9.56253 59.4256 9.67644 59.7674 9.67644H62.257C62.9404 9.67644 63.5425 9.92052 64.0306 10.4087C64.5188 10.8968 64.7629 11.4826 64.7629 12.1823C64.7629 12.8657 64.5188 13.4678 64.0306 13.956C63.5425 14.4441 62.9567 14.6882 62.257 14.6882H57.8961C57.7334 14.6882 57.5706 14.6231 57.4567 14.5092C57.3266 14.379 57.2777 14.2326 57.2777 14.0699C57.2777 13.9072 57.3428 13.7607 57.4567 13.6305C57.5869 13.5004 57.7334 13.4515 57.8961 13.4515H62.257C62.5987 13.4515 62.8916 13.3376 63.1357 13.0936C63.3797 12.8495 63.4936 12.5566 63.4936 12.2149C63.4936 11.8732 63.3797 11.5803 63.1357 11.3362C62.8916 11.0921 62.5987 10.9782 62.257 10.9782H59.7674C59.0839 10.9782 58.4819 10.7341 57.9937 10.246C57.5056 9.7578 57.2615 9.17201 57.2615 8.47232C57.2615 7.77262 57.5056 7.18683 57.9937 6.69867C58.4819 6.21051 59.0677 5.96643 59.7674 5.96643H64.1282Z" fill="#00BDF7"/>
<path fill-rule="evenodd" clip-rule="evenodd" d="M108.258 5.96643C108.42 5.96643 108.567 6.03151 108.697 6.14542C108.827 6.27559 108.876 6.42204 108.876 6.58476C108.876 6.74748 108.811 6.89393 108.697 7.02411C108.567 7.15428 108.42 7.2031 108.258 7.2031H103.897C103.555 7.2031 103.262 7.317 103.018 7.56108C102.774 7.80516 102.66 8.09806 102.66 8.43977C102.66 8.78148 102.774 9.07437 103.018 9.31845C103.262 9.56253 103.555 9.67644 103.897 9.67644H106.386C107.07 9.67644 107.672 9.92052 108.16 10.4087C108.648 10.8968 108.892 11.4826 108.892 12.1823C108.892 12.8657 108.648 13.4678 108.16 13.956C107.672 14.4441 107.086 14.6882 106.386 14.6882H102.026C101.863 14.6882 101.716 14.6231 101.586 14.5092C101.456 14.379 101.407 14.2326 101.407 14.0699C101.407 13.9072 101.472 13.7607 101.586 13.6305C101.716 13.5004 101.863 13.4515 102.026 13.4515H106.386C106.728 13.4515 107.021 13.3376 107.265 13.0936C107.509 12.8495 107.623 12.5566 107.623 12.2149C107.623 11.8732 107.509 11.5803 107.265 11.3362C107.021 11.0921 106.728 10.9782 106.386 10.9782H103.897C103.213 10.9782 102.611 10.7341 102.123 10.246C101.635 9.7578 101.391 9.17201 101.391 8.47232C101.391 7.77262 101.635 7.18683 102.123 6.69867C102.611 6.21051 103.197 5.96643 103.897 5.96643H108.258Z" fill="#00BDF7"/>
<path fill-rule="evenodd" clip-rule="evenodd" d="M66.1947 7.04034C66.3249 7.17052 66.4714 7.21934 66.6341 7.21934H69.1237V13.8746C69.1237 14.1024 69.1888 14.2977 69.3027 14.4604C69.4329 14.6231 69.5793 14.7044 69.742 14.7044C69.9048 14.7044 70.0512 14.6231 70.1814 14.4604C70.3116 14.2977 70.3604 14.1024 70.3604 13.8746V7.21934H72.85C73.0127 7.21934 73.1592 7.15425 73.2893 7.04034C73.4195 6.91017 73.4683 6.76373 73.4683 6.60101C73.4683 6.43829 73.4032 6.29184 73.2893 6.16166C73.1592 6.03149 73.0127 5.98267 72.85 5.98267H66.6015C66.4388 5.98267 66.2761 6.04776 66.1622 6.16166C66.032 6.29184 65.9832 6.43829 65.9832 6.60101C66.0158 6.76373 66.0646 6.91017 66.1947 7.04034Z" fill="#00BDF7"/>
<path fill-rule="evenodd" clip-rule="evenodd" d="M74.7539 6.60101C74.7539 6.43829 74.819 6.27557 74.9329 6.16166C75.0631 6.03149 75.2095 5.98267 75.3722 5.98267C75.535 5.98267 75.6814 6.04776 75.8116 6.16166C75.9418 6.29184 75.9906 6.43829 75.9906 6.60101V9.12316L81.2952 6.06403C81.3929 5.99894 81.4905 5.98267 81.6207 5.98267C81.7997 5.98267 81.9461 6.04776 82.06 6.16166C82.1739 6.29184 82.239 6.43829 82.239 6.60101C82.239 6.78 82.1739 6.92644 82.06 7.04034C81.9949 7.10543 81.9298 7.13798 81.8648 7.17053L76.3648 10.3436L81.8648 13.5166C81.9298 13.5491 81.9949 13.598 82.06 13.6468C82.1739 13.7769 82.239 13.9234 82.239 14.0861C82.239 14.2488 82.1739 14.4115 82.06 14.5255C81.9461 14.6556 81.7997 14.7044 81.6207 14.7044C81.5068 14.7044 81.3929 14.6719 81.2952 14.6231L75.9906 11.564V14.0861C75.9906 14.2488 75.9255 14.4115 75.8116 14.5255C75.6814 14.6556 75.535 14.7044 75.3722 14.7044C75.2095 14.7044 75.0631 14.6394 74.9329 14.5255C74.8027 14.3953 74.7539 14.2488 74.7539 14.0861V6.60101Z" fill="#00BDF7"/>
<path fill-rule="evenodd" clip-rule="evenodd" d="M84.1102 14.7044C83.9475 14.7044 83.7848 14.6394 83.6709 14.5255C83.5407 14.3953 83.4919 14.2488 83.4919 14.0861C83.4919 13.9234 83.5569 13.7769 83.6709 13.6468C83.801 13.5166 83.9475 13.4678 84.1102 13.4678H90.3586C90.5213 13.4678 90.6678 13.5329 90.798 13.6468C90.9281 13.7769 90.977 13.9234 90.977 14.0861C90.977 14.2488 90.9119 14.4115 90.798 14.5255C90.6678 14.6556 90.5213 14.7044 90.3586 14.7044H84.1102ZM90.3424 9.70895C90.5051 9.70895 90.6515 9.77404 90.7817 9.88794C90.9119 10.0181 90.9607 10.1646 90.9607 10.3273C90.9607 10.49 90.8956 10.6365 90.7817 10.7666C90.6515 10.8968 90.5051 10.9456 90.3424 10.9456H84.0939C83.9312 10.9456 83.7685 10.8805 83.6546 10.7666C83.5244 10.6365 83.4756 10.49 83.4756 10.3273C83.4756 10.1646 83.5407 10.0181 83.6546 9.88794C83.7848 9.75776 83.9312 9.70895 84.0939 9.70895H90.3424ZM84.1102 7.21934C83.9475 7.21934 83.7848 7.15425 83.6709 7.04034C83.5407 6.91017 83.4919 6.76373 83.4919 6.60101C83.4919 6.43829 83.5569 6.27557 83.6709 6.16166C83.801 6.03149 83.9475 5.98267 84.1102 5.98267H90.3586C90.5213 5.98267 90.6678 6.04776 90.798 6.16166C90.9281 6.29184 90.977 6.43829 90.977 6.60101C90.977 6.76373 90.9119 6.91017 90.798 7.04034C90.6678 7.17052 90.5213 7.21934 90.3586 7.21934H84.1102Z" fill="#00BDF7"/>
<path fill-rule="evenodd" clip-rule="evenodd" d="M92.2299 6.60101C92.2299 6.43829 92.2949 6.27557 92.4089 6.16166C92.539 6.03149 92.6855 5.98267 92.8482 5.98267C93.0109 5.98267 93.1574 6.04776 93.2875 6.16166C93.4177 6.29184 93.4665 6.43829 93.4665 6.60101V7.85394C93.4665 8.53737 93.7106 9.13943 94.1988 9.62759C94.6869 10.1158 95.2727 10.3598 95.9724 10.3598C96.6558 10.3598 97.2579 10.1158 97.7461 9.62759C98.2342 9.13943 98.4783 8.55364 98.4783 7.85394V6.60101C98.4783 6.43829 98.5434 6.27557 98.6573 6.16166C98.7875 6.03149 98.9339 5.98267 99.0966 5.98267C99.2594 5.98267 99.4058 6.04776 99.536 6.16166C99.6662 6.29184 99.715 6.43829 99.715 6.60101V7.85394C99.715 8.89535 99.357 9.77404 98.6247 10.5063C98.039 11.0921 97.3718 11.4338 96.5907 11.5477V14.0861C96.5907 14.2488 96.5257 14.4115 96.4118 14.5255C96.2816 14.6556 96.1351 14.7044 95.9724 14.7044C95.8097 14.7044 95.6632 14.6394 95.5331 14.5255C95.4029 14.3953 95.3541 14.2488 95.3541 14.0861V11.5477C94.5893 11.4338 93.9059 11.0758 93.3364 10.5063C92.6041 9.77404 92.2299 8.89535 92.2299 7.85394V6.60101Z" fill="#00BDF7"/>
<path fill-rule="evenodd" clip-rule="evenodd" d="M35.4241 14.0859C35.4241 14.2486 35.359 14.4113 35.2451 14.5252C35.1149 14.6554 34.9685 14.7042 34.8057 14.7042C34.643 14.7042 34.4966 14.6391 34.3664 14.5252C34.2362 14.395 34.1874 14.2486 34.1874 14.0859V7.2191H31.6978C31.5351 7.2191 31.3724 7.154 31.2585 7.0401C31.1283 6.90992 31.0795 6.76348 31.0795 6.60076C31.0795 6.43805 31.1446 6.27532 31.2585 6.16142C31.3886 6.03124 31.5351 5.98242 31.6978 5.98242H37.9137C38.0764 5.98242 38.2229 6.04752 38.353 6.16142C38.4832 6.2916 38.532 6.43805 38.532 6.60076C38.532 6.76348 38.4669 6.90992 38.353 7.0401C38.2229 7.17028 38.0764 7.2191 37.9137 7.2191H35.4241V14.0859Z" fill="#00BDF7"/>
<path fill-rule="evenodd" clip-rule="evenodd" d="M11.7537 26.9092L11.4017 26.7239L2.39882 21.8149L2.37103 25.8347C2.37103 25.844 2.37103 25.8533 2.37103 25.8625V27.2704V28.7616C2.38029 29.6045 2.81562 30.364 3.54734 30.79C3.90856 31.0031 4.30684 31.1049 4.70511 31.1049C5.10339 31.1049 5.50166 31.0031 5.87215 30.79L12.3835 27.2055L11.7537 26.9092Z" fill="url(#paint0_linear)"/>
<path fill-rule="evenodd" clip-rule="evenodd" d="M22.9055 5.60596L13.9304 0.43764C12.9115 -0.14588 11.6426 -0.14588 10.6238 0.43764L1.64867 5.60596C0.629831 6.18948 0 7.28242 0 8.45872V18.7861C0 19.9624 0.629831 21.0553 1.64867 21.6388L10.068 26.1496L12.2539 27.2703L22.9055 21.6388C23.9243 21.0553 24.5541 19.9624 24.5541 18.7861V8.45872C24.5634 7.28242 23.9243 6.18948 22.9055 5.60596Z" fill="url(#paint1_linear)"/>
<mask id="mask0" mask-type="alpha" maskUnits="userSpaceOnUse" x="0" y="0" width="25" height="28">
<path fill-rule="evenodd" clip-rule="evenodd" d="M22.9055 5.60596L13.9304 0.43764C12.9115 -0.14588 11.6426 -0.14588 10.6238 0.43764L1.64867 5.60596C0.629831 6.18948 0 7.28242 0 8.45872V18.7861C0 19.9624 0.629831 21.0553 1.64867 21.6388L10.068 26.1496L12.2539 27.2703L22.9055 21.6388C23.9243 21.0553 24.5541 19.9624 24.5541 18.7861V8.45872C24.5634 7.28242 23.9243 6.18948 22.9055 5.60596Z" fill="white"/>
</mask>
<g mask="url(#mask0)">
<path fill-rule="evenodd" clip-rule="evenodd" d="M13.7172 14.3124C14.7361 13.7937 15.4307 12.7471 15.4307 11.543C15.4307 9.8295 14.0229 8.43091 12.2908 8.43091C10.5588 8.43091 9.15094 9.82024 9.15094 11.543C9.15094 12.7842 9.89192 13.8586 10.9571 14.3587V18.1655C10.9571 18.8509 11.5128 19.4066 12.1889 19.4066H12.4853C13.1615 19.4066 13.7172 18.8509 13.7172 18.1655V14.3124Z" fill="white"/>
</g>
<defs>
<linearGradient id="paint0_linear" x1="-5.75119" y1="34.4558" x2="11.9838" y2="21.0264" gradientUnits="userSpaceOnUse">
<stop stop-color="#00EAF8"/>
<stop offset="0.3136" stop-color="#17C7F6"/>
<stop offset="1" stop-color="#6D42EF"/>
</linearGradient>
<linearGradient id="paint1_linear" x1="-1.3264" y1="1.48958" x2="26.3124" y2="26.1318" gradientUnits="userSpaceOnUse">
<stop stop-color="#00EAF8"/>
<stop offset="1" stop-color="#6D42EF"/>
</linearGradient>
</defs>
</svg>
